<svg width="120" height="120" xmlns="http://www.w3.org/2000/svg">
  <!-- Background gradient -->
  <defs>
    <linearGradient id="grad1" x1="0%" y1="0%" x2="100%" y2="100%">
      <stop offset="0%" style="stop-color:#667eea;stop-opacity:1" />
      <stop offset="100%" style="stop-color:#764ba2;stop-opacity:1" />
    </linearGradient>
  </defs>
  
  <!-- Background circle -->
  <circle cx="60" cy="60" r="58" fill="url(#grad1)" stroke="#fff" stroke-width="2"/>
  
  <!-- Document/list icon -->
  <rect x="35" y="30" width="50" height="60" rx="4" fill="#fff" opacity="0.9"/>
  
  <!-- Checkmark lines -->
  <line x1="42" y1="42" x2="48" y2="42" stroke="#667eea" stroke-width="3" stroke-linecap="round"/>
  <line x1="42" y1="52" x2="48" y2="52" stroke="#667eea" stroke-width="3" stroke-linecap="round"/>
  <line x1="42" y1="62" x2="48" y2="62" stroke="#667eea" stroke-width="3" stroke-linecap="round"/>
  <line x1="42" y1="72" x2="48" y2="72" stroke="#667eea" stroke-width="3" stroke-linecap="round"/>
  
  <!-- Content lines -->
  <line x1="53" y1="42" x2="77" y2="42" stroke="#999" stroke-width="2" stroke-linecap="round"/>
  <line x1="53" y1="52" x2="77" y2="52" stroke="#999" stroke-width="2" stroke-linecap="round"/>
  <line x1="53" y1="62" x2="77" y2="62" stroke="#999" stroke-width="2" stroke-linecap="round"/>
  <line x1="53" y1="72" x2="70" y2="72" stroke="#999" stroke-width="2" stroke-linecap="round"/>
  
  <!-- Pulse/heart icon in corner -->
  <circle cx="75" cy="80" r="10" fill="#667eea"/>
  <path d="M 75 77 Q 72 74 69 77 Q 69 81 75 85 Q 81 81 81 77 Q 78 74 75 77 Z" fill="#fff"/>
</svg>
